<mxfile host="app.diagrams.net" agent="Mozilla/5.0 (X11; Linux x86_64) AppleWebKit/537.36 (KHTML, like Gecko) Chrome/141.0.0.0 Safari/537.36" version="28.2.5">
  <diagram name="Página-1" id="isQKPNErmIR2yWjYdxqK">
    <mxGraphModel dx="1426" dy="679" grid="1" gridSize="10" guides="1" tooltips="1" connect="1" arrows="1" fold="1" page="1" pageScale="1" pageWidth="827" pageHeight="1169" math="0" shadow="0">
      <root>
        <mxCell id="0" />
        <mxCell id="1" parent="0" />
        <mxCell id="HzBCu-TyxFLCMOJDTT90-1" value="VISTA" style="rounded=0;whiteSpace=wrap;html=1;" vertex="1" parent="1">
          <mxGeometry x="120" y="20" width="120" height="60" as="geometry" />
        </mxCell>
        <mxCell id="HzBCu-TyxFLCMOJDTT90-2" value="CONTROLADOR" style="rounded=0;whiteSpace=wrap;html=1;" vertex="1" parent="1">
          <mxGeometry x="320" y="20" width="120" height="60" as="geometry" />
        </mxCell>
        <mxCell id="HzBCu-TyxFLCMOJDTT90-3" value="MODELO" style="rounded=0;whiteSpace=wrap;html=1;" vertex="1" parent="1">
          <mxGeometry x="520" y="20" width="120" height="60" as="geometry" />
        </mxCell>
        <mxCell id="HzBCu-TyxFLCMOJDTT90-4" style="edgeStyle=orthogonalEdgeStyle;rounded=0;orthogonalLoop=1;jettySize=auto;html=1;exitX=0.5;exitY=1;exitDx=0;exitDy=0;entryX=0.5;entryY=0;entryDx=0;entryDy=0;" edge="1" parent="1" source="HzBCu-TyxFLCMOJDTT90-5" target="HzBCu-TyxFLCMOJDTT90-13">
          <mxGeometry relative="1" as="geometry" />
        </mxCell>
        <mxCell id="HzBCu-TyxFLCMOJDTT90-5" value="comprobar saldo restante = 0" style="rounded=1;whiteSpace=wrap;html=1;" vertex="1" parent="1">
          <mxGeometry x="320" y="600" width="120" height="40" as="geometry" />
        </mxCell>
        <mxCell id="HzBCu-TyxFLCMOJDTT90-6" style="edgeStyle=orthogonalEdgeStyle;rounded=0;orthogonalLoop=1;jettySize=auto;html=1;exitX=0.5;exitY=1;exitDx=0;exitDy=0;entryX=0.5;entryY=0;entryDx=0;entryDy=0;" edge="1" parent="1" source="HzBCu-TyxFLCMOJDTT90-7" target="HzBCu-TyxFLCMOJDTT90-10">
          <mxGeometry relative="1" as="geometry" />
        </mxCell>
        <mxCell id="HzBCu-TyxFLCMOJDTT90-7" value="informar error" style="rounded=1;whiteSpace=wrap;html=1;" vertex="1" parent="1">
          <mxGeometry x="120" y="680" width="120" height="40" as="geometry" />
        </mxCell>
        <mxCell id="HzBCu-TyxFLCMOJDTT90-8" style="edgeStyle=orthogonalEdgeStyle;rounded=0;orthogonalLoop=1;jettySize=auto;html=1;exitX=1;exitY=0.5;exitDx=0;exitDy=0;" edge="1" parent="1" source="HzBCu-TyxFLCMOJDTT90-9" target="HzBCu-TyxFLCMOJDTT90-15">
          <mxGeometry relative="1" as="geometry" />
        </mxCell>
        <mxCell id="HzBCu-TyxFLCMOJDTT90-9" value="baja préstamo" style="rounded=1;whiteSpace=wrap;html=1;" vertex="1" parent="1">
          <mxGeometry x="320" y="760" width="120" height="40" as="geometry" />
        </mxCell>
        <mxCell id="HzBCu-TyxFLCMOJDTT90-10" value="" style="ellipse;whiteSpace=wrap;html=1;aspect=fixed;fillStyle=solid;fillColor=light-dark(#FFFFFF,#121212);" vertex="1" parent="1">
          <mxGeometry x="170" y="850" width="20" height="20" as="geometry" />
        </mxCell>
        <mxCell id="HzBCu-TyxFLCMOJDTT90-11" style="edgeStyle=orthogonalEdgeStyle;rounded=0;orthogonalLoop=1;jettySize=auto;html=1;exitX=0.5;exitY=1;exitDx=0;exitDy=0;entryX=0.5;entryY=0;entryDx=0;entryDy=0;" edge="1" parent="1" source="HzBCu-TyxFLCMOJDTT90-13" target="HzBCu-TyxFLCMOJDTT90-9">
          <mxGeometry relative="1" as="geometry" />
        </mxCell>
        <mxCell id="HzBCu-TyxFLCMOJDTT90-12" style="edgeStyle=orthogonalEdgeStyle;rounded=0;orthogonalLoop=1;jettySize=auto;html=1;exitX=0;exitY=0.5;exitDx=0;exitDy=0;" edge="1" parent="1" source="HzBCu-TyxFLCMOJDTT90-13" target="HzBCu-TyxFLCMOJDTT90-7">
          <mxGeometry relative="1" as="geometry" />
        </mxCell>
        <mxCell id="HzBCu-TyxFLCMOJDTT90-13" value="" style="rhombus;whiteSpace=wrap;html=1;" vertex="1" parent="1">
          <mxGeometry x="360" y="680" width="40" height="40" as="geometry" />
        </mxCell>
        <mxCell id="HzBCu-TyxFLCMOJDTT90-14" style="edgeStyle=orthogonalEdgeStyle;rounded=0;orthogonalLoop=1;jettySize=auto;html=1;exitX=0.5;exitY=1;exitDx=0;exitDy=0;entryX=1;entryY=0.5;entryDx=0;entryDy=0;" edge="1" parent="1" source="HzBCu-TyxFLCMOJDTT90-15" target="HzBCu-TyxFLCMOJDTT90-10">
          <mxGeometry relative="1" as="geometry" />
        </mxCell>
        <mxCell id="HzBCu-TyxFLCMOJDTT90-15" value="modificar tabla préstamos" style="rounded=1;whiteSpace=wrap;html=1;" vertex="1" parent="1">
          <mxGeometry x="520" y="760" width="120" height="40" as="geometry" />
        </mxCell>
        <mxCell id="HzBCu-TyxFLCMOJDTT90-16" style="edgeStyle=orthogonalEdgeStyle;rounded=0;orthogonalLoop=1;jettySize=auto;html=1;exitX=1;exitY=0.5;exitDx=0;exitDy=0;entryX=0;entryY=0.5;entryDx=0;entryDy=0;" edge="1" parent="1" source="HzBCu-TyxFLCMOJDTT90-17" target="HzBCu-TyxFLCMOJDTT90-5">
          <mxGeometry relative="1" as="geometry" />
        </mxCell>
        <mxCell id="HzBCu-TyxFLCMOJDTT90-17" value="baja préstamo" style="rounded=1;whiteSpace=wrap;html=1;" vertex="1" parent="1">
          <mxGeometry x="120" y="600" width="120" height="40" as="geometry" />
        </mxCell>
        <mxCell id="HzBCu-TyxFLCMOJDTT90-18" style="edgeStyle=orthogonalEdgeStyle;rounded=0;orthogonalLoop=1;jettySize=auto;html=1;exitX=0.5;exitY=1;exitDx=0;exitDy=0;entryX=0.5;entryY=0;entryDx=0;entryDy=0;" edge="1" parent="1" source="HzBCu-TyxFLCMOJDTT90-19" target="HzBCu-TyxFLCMOJDTT90-21">
          <mxGeometry relative="1" as="geometry" />
        </mxCell>
        <mxCell id="HzBCu-TyxFLCMOJDTT90-19" value="vista préstamos" style="rounded=1;whiteSpace=wrap;html=1;" vertex="1" parent="1">
          <mxGeometry x="120" y="120" width="120" height="40" as="geometry" />
        </mxCell>
        <mxCell id="HzBCu-TyxFLCMOJDTT90-20" style="edgeStyle=orthogonalEdgeStyle;rounded=0;orthogonalLoop=1;jettySize=auto;html=1;exitX=1;exitY=0.5;exitDx=0;exitDy=0;entryX=0;entryY=0.5;entryDx=0;entryDy=0;" edge="1" parent="1" source="HzBCu-TyxFLCMOJDTT90-21" target="HzBCu-TyxFLCMOJDTT90-23">
          <mxGeometry relative="1" as="geometry" />
        </mxCell>
        <mxCell id="HzBCu-TyxFLCMOJDTT90-21" value="listar préstamos" style="rounded=1;whiteSpace=wrap;html=1;" vertex="1" parent="1">
          <mxGeometry x="120" y="200" width="120" height="40" as="geometry" />
        </mxCell>
        <mxCell id="HzBCu-TyxFLCMOJDTT90-22" style="edgeStyle=orthogonalEdgeStyle;rounded=0;orthogonalLoop=1;jettySize=auto;html=1;exitX=1;exitY=0.5;exitDx=0;exitDy=0;entryX=0;entryY=0.5;entryDx=0;entryDy=0;" edge="1" parent="1" source="HzBCu-TyxFLCMOJDTT90-23" target="HzBCu-TyxFLCMOJDTT90-25">
          <mxGeometry relative="1" as="geometry" />
        </mxCell>
        <mxCell id="HzBCu-TyxFLCMOJDTT90-23" value="recuperar lista préstamo" style="rounded=1;whiteSpace=wrap;html=1;" vertex="1" parent="1">
          <mxGeometry x="320" y="200" width="120" height="40" as="geometry" />
        </mxCell>
        <mxCell id="HzBCu-TyxFLCMOJDTT90-24" style="edgeStyle=orthogonalEdgeStyle;rounded=0;orthogonalLoop=1;jettySize=auto;html=1;exitX=0.5;exitY=1;exitDx=0;exitDy=0;entryX=1;entryY=0.5;entryDx=0;entryDy=0;" edge="1" parent="1" source="HzBCu-TyxFLCMOJDTT90-25" target="HzBCu-TyxFLCMOJDTT90-30">
          <mxGeometry relative="1" as="geometry" />
        </mxCell>
        <mxCell id="HzBCu-TyxFLCMOJDTT90-25" value="recuperar préstamos" style="rounded=1;whiteSpace=wrap;html=1;" vertex="1" parent="1">
          <mxGeometry x="520" y="200" width="120" height="40" as="geometry" />
        </mxCell>
        <mxCell id="HzBCu-TyxFLCMOJDTT90-26" style="edgeStyle=orthogonalEdgeStyle;rounded=0;orthogonalLoop=1;jettySize=auto;html=1;exitX=0;exitY=0.5;exitDx=0;exitDy=0;entryX=1;entryY=0.5;entryDx=0;entryDy=0;" edge="1" parent="1" source="HzBCu-TyxFLCMOJDTT90-28" target="HzBCu-TyxFLCMOJDTT90-32">
          <mxGeometry relative="1" as="geometry" />
        </mxCell>
        <mxCell id="HzBCu-TyxFLCMOJDTT90-27" style="edgeStyle=orthogonalEdgeStyle;rounded=0;orthogonalLoop=1;jettySize=auto;html=1;exitX=0.5;exitY=1;exitDx=0;exitDy=0;entryX=1;entryY=0.5;entryDx=0;entryDy=0;" edge="1" parent="1" source="HzBCu-TyxFLCMOJDTT90-28" target="HzBCu-TyxFLCMOJDTT90-34">
          <mxGeometry relative="1" as="geometry" />
        </mxCell>
        <mxCell id="HzBCu-TyxFLCMOJDTT90-28" value="" style="rhombus;whiteSpace=wrap;html=1;" vertex="1" parent="1">
          <mxGeometry x="360" y="360" width="40" height="40" as="geometry" />
        </mxCell>
        <mxCell id="HzBCu-TyxFLCMOJDTT90-29" style="edgeStyle=orthogonalEdgeStyle;rounded=0;orthogonalLoop=1;jettySize=auto;html=1;exitX=0.5;exitY=1;exitDx=0;exitDy=0;entryX=0.5;entryY=0;entryDx=0;entryDy=0;" edge="1" parent="1" source="HzBCu-TyxFLCMOJDTT90-30" target="HzBCu-TyxFLCMOJDTT90-28">
          <mxGeometry relative="1" as="geometry" />
        </mxCell>
        <mxCell id="HzBCu-TyxFLCMOJDTT90-30" value="comprobar lista" style="rounded=1;whiteSpace=wrap;html=1;" vertex="1" parent="1">
          <mxGeometry x="320" y="280" width="120" height="40" as="geometry" />
        </mxCell>
        <mxCell id="HzBCu-TyxFLCMOJDTT90-31" style="edgeStyle=orthogonalEdgeStyle;rounded=0;orthogonalLoop=1;jettySize=auto;html=1;exitX=0;exitY=0.5;exitDx=0;exitDy=0;entryX=0;entryY=0.5;entryDx=0;entryDy=0;" edge="1" parent="1" source="HzBCu-TyxFLCMOJDTT90-32" target="HzBCu-TyxFLCMOJDTT90-10">
          <mxGeometry relative="1" as="geometry" />
        </mxCell>
        <mxCell id="HzBCu-TyxFLCMOJDTT90-32" value="informar lista vacia" style="rounded=1;whiteSpace=wrap;html=1;" vertex="1" parent="1">
          <mxGeometry x="120" y="360" width="120" height="40" as="geometry" />
        </mxCell>
        <mxCell id="HzBCu-TyxFLCMOJDTT90-33" style="edgeStyle=orthogonalEdgeStyle;rounded=0;orthogonalLoop=1;jettySize=auto;html=1;exitX=0.5;exitY=1;exitDx=0;exitDy=0;entryX=0.5;entryY=0;entryDx=0;entryDy=0;" edge="1" parent="1" source="HzBCu-TyxFLCMOJDTT90-34" target="HzBCu-TyxFLCMOJDTT90-36">
          <mxGeometry relative="1" as="geometry" />
        </mxCell>
        <mxCell id="HzBCu-TyxFLCMOJDTT90-34" value="mostrar lista" style="rounded=1;whiteSpace=wrap;html=1;" vertex="1" parent="1">
          <mxGeometry x="120" y="440" width="120" height="40" as="geometry" />
        </mxCell>
        <mxCell id="HzBCu-TyxFLCMOJDTT90-35" style="edgeStyle=orthogonalEdgeStyle;rounded=0;orthogonalLoop=1;jettySize=auto;html=1;exitX=0.5;exitY=1;exitDx=0;exitDy=0;" edge="1" parent="1" source="HzBCu-TyxFLCMOJDTT90-36" target="HzBCu-TyxFLCMOJDTT90-17">
          <mxGeometry relative="1" as="geometry" />
        </mxCell>
        <mxCell id="HzBCu-TyxFLCMOJDTT90-36" value="seleccionar préstamo" style="rounded=1;whiteSpace=wrap;html=1;" vertex="1" parent="1">
          <mxGeometry x="120" y="520" width="120" height="40" as="geometry" />
        </mxCell>
      </root>
    </mxGraphModel>
  </diagram>
</mxfile>
